<svg width="400" height="100" xmlns="http://www.w3.org/2000/svg">
  <path d="M20 80 L60 20 L80 20 L120 80 H100 L90 60 H50 L40 80 H20 Z" fill="#2B5F82"/>
  <path d="M60 50 H80" stroke="#2B5F82" stroke-width="8"/>
  <path d="M150 80 L190 20 L230 80 L270 20 L310 80 H290 L270 40 L250 80 L230 40 L210 80 H150 Z" fill="#2B5F82"/>
  <path d="M320 20 L340 20 L380 80 H360 L350 60 H310 L300 80 H280 L320 20 Z" fill="#2B5F82"/>
  <path d="M330 40 L320 50 L340 50 L330 40 Z" fill="#2B5F82"/>
  <path d="M380 20 L380 80 H360 L360 20 H380 Z" fill="#2B5F82"/>
  <path d="M0 50 L400 50" stroke="#FF8C00" stroke-width="2"/>
  <path d="M460 20 L480 10 L500 20 L490 30 L480 40 L470 30 L460 20 Z" fill="#FF8C00"/>
</svg>
